<svg version="1.1" id="Layer_1" xmlns="http://www.w3.org/2000/svg" xmlns:xlink="http://www.w3.org/1999/xlink" x="0px" y="0px"
	 width="100%" viewBox="0 0 736 304" enable-background="new 0 0 736 304" xml:space="preserve">
<path fill="#000000" opacity="1.000000" stroke="none" 
	d="
M524.299683,154.316910 
	C522.627808,156.247986 521.682129,158.150955 520.886475,160.199615 
	C520.266418,161.796204 519.719299,164.166855 517.190552,163.209824 
	C514.729370,162.278366 513.560974,160.202316 514.444885,157.568741 
	C515.127075,155.536072 516.201111,153.634903 517.534241,150.731689 
	C513.105408,153.488663 509.343689,155.711334 505.705170,158.120056 
	C498.121857,163.140198 492.992432,162.107361 488.220306,154.217178 
	C483.418732,156.667068 479.560944,163.166367 473.020355,159.302826 
	C468.248993,156.484344 472.409821,151.634720 471.258209,148.116791 
	C465.237213,152.500839 462.117828,160.257782 454.966034,163.825958 
	C454.376648,164.120010 453.495605,163.248169 453.205750,162.060623 
	C454.811615,159.260056 457.952484,157.771591 460.226105,155.411209 
	C465.791656,149.633240 470.872620,143.521652 475.018951,136.647324 
	C475.766296,135.408279 476.305634,133.446625 478.191071,134.250732 
	C480.249268,135.128494 479.986877,137.088211 479.499786,139.004562 
	C478.396484,143.345215 477.396301,147.712784 476.407623,152.081497 
	C475.999237,153.885895 475.754120,155.715820 477.912292,157.534714 
	C482.470825,154.830429 487.545837,153.136292 489.334167,146.653564 
	C491.526306,138.707016 498.111816,134.784363 505.613403,132.651413 
	C509.319519,131.597610 511.213593,133.734161 511.365417,137.472321 
	C511.526764,141.444687 509.386383,144.068176 506.248016,146.009781 
	C502.672028,148.222122 501.236267,147.451050 500.881104,143.301117 
	C500.800385,142.357666 501.237244,141.298294 499.970703,140.249710 
	C495.537048,143.753815 493.667419,148.640091 493.552521,153.983978 
	C493.478546,157.423660 496.727997,158.639053 499.358582,157.410889 
	C510.301605,152.301819 521.310730,147.501480 526.160095,134.648773 
	C529.666626,125.354858 534.888428,116.714027 541.308105,108.959000 
	C542.486816,107.535080 543.773987,106.233269 546.269104,106.145050 
	C548.120728,110.880287 547.102539,115.267975 544.759338,119.645683 
	C541.125366,126.434792 536.391785,132.424179 531.528320,138.329361 
	C530.787109,139.229370 529.921997,140.028976 529.830200,141.289581 
	C530.087463,141.404922 530.458496,141.687012 530.579529,141.604080 
	C532.533508,140.265915 534.266357,137.393646 536.977051,139.522659 
	C539.471619,141.482025 539.492310,144.543594 538.289368,147.324753 
	C537.045471,150.200516 537.539429,153.178970 537.367798,156.501984 
	C542.815613,151.540649 550.034241,149.686859 555.490723,145.019577 
	C558.710999,142.265060 562.508850,140.590836 566.122986,138.560776 
	C567.424805,137.829529 568.975281,137.037323 570.169800,138.579132 
	C571.137756,139.828491 570.350098,141.029419 569.509888,142.172165 
	C566.856506,145.781067 569.096069,150.603973 565.610657,154.643585 
	C569.289551,154.459991 570.672607,151.314285 573.882812,151.424225 
	C572.575439,155.340958 569.454285,156.842728 566.398193,158.091476 
	C563.559448,159.251465 563.000610,156.270813 561.817749,154.776001 
	C559.989685,154.232498 558.846741,155.368576 557.640930,156.168121 
	C551.599243,160.174347 551.282837,160.085251 549.009766,153.356659 
	C545.637268,152.966370 544.132751,155.751816 542.047485,157.517029 
	C539.843262,159.382935 537.632568,161.334518 534.486755,159.849350 
	C531.566833,158.470810 531.472168,155.830734 531.618591,153.014908 
	C531.717834,151.106552 531.355591,149.174210 531.172852,146.920731 
	C528.407532,149.121521 526.364746,151.483078 524.299683,154.316910 
M540.679138,116.393295 
	C538.743958,119.963089 536.961731,123.595314 535.635498,128.217438 
	C542.476685,119.235199 543.020020,118.004784 542.375244,112.942337 
	C541.806763,114.064278 541.371826,114.922745 540.679138,116.393295 
M558.326660,152.132233 
	C560.649475,150.249863 563.362366,148.696594 564.593872,144.928864 
	C560.865234,146.940628 557.907654,148.922180 556.721008,152.259094 
	C556.046387,154.156097 557.479614,152.300186 558.326660,152.132233 
M507.292725,136.768326 
	C506.734619,134.879730 505.640167,135.092697 503.999390,136.193054 
	C505.452393,137.758102 504.858368,139.747406 504.746826,141.857574 
	C506.907959,140.694290 506.919647,138.956940 507.292725,136.768326 
z"/>
<path fill="#000000" opacity="1.000000" stroke="none" 
	d="
M150.569489,139.858261 
	C152.027847,135.925659 153.351303,132.376205 154.847488,128.363541 
	C149.672607,132.736374 134.651337,153.902725 133.587967,160.790680 
	C130.435471,160.961517 128.601990,160.290482 129.406387,156.375854 
	C130.204803,152.490356 130.388855,148.481445 131.117523,144.578018 
	C131.845551,140.677994 132.796066,136.837616 131.009415,131.625092 
	C129.205414,141.735123 124.137131,149.022415 118.832336,156.236450 
	C116.331863,159.636887 113.176743,161.287491 109.133286,161.426010 
	C104.158501,161.596420 101.634033,159.319580 101.685982,154.902161 
	C101.741531,150.177505 105.904564,145.622849 109.926414,145.886520 
	C113.594276,146.126984 115.404488,149.219894 113.971397,152.687759 
	C113.088409,154.824478 111.246643,155.897034 108.946487,157.169037 
	C117.668320,155.109634 130.877884,129.126999 129.048935,118.500694 
	C136.620041,115.644966 139.067322,119.748161 138.229553,125.963463 
	C137.425491,131.928802 137.110062,137.960007 137.711014,144.380493 
	C142.945404,137.615738 148.184433,130.854584 153.405029,124.079201 
	C153.806702,123.557899 153.955170,122.791901 154.431305,122.385887 
	C156.851746,120.321922 159.274704,116.125183 162.578583,118.467415 
	C165.903107,120.824303 161.312759,123.369995 160.730728,125.950699 
	C158.840652,134.331284 152.559753,141.487534 153.412842,150.510330 
	C155.320770,151.743210 157.110748,149.977386 158.835464,151.519699 
	C159.755280,154.719177 159.219345,157.790039 156.170166,160.040497 
	C153.618942,161.923401 151.358841,160.449280 149.379761,158.891556 
	C147.067184,157.071304 147.453156,154.380280 147.890030,151.937607 
	C148.591995,148.012726 149.572037,144.137558 150.569489,139.858261 
z"/>
<path fill="#000000" opacity="1.000000" stroke="none" 
	d="
M297.047485,175.286499 
	C294.674805,175.370575 292.684143,175.529633 290.707916,175.422165 
	C284.477844,175.083359 281.592712,170.409760 284.338226,164.750595 
	C286.950043,159.367065 291.748932,156.673141 297.474457,155.961533 
	C301.530670,155.457413 303.757172,158.831879 301.875153,162.455093 
	C299.961639,166.138947 296.880554,168.191452 292.475708,167.427505 
	C291.126190,167.193436 289.691925,165.703308 288.509521,167.633316 
	C287.884003,168.654312 287.497894,169.919189 288.331085,170.910965 
	C289.406250,172.190720 291.105865,172.273651 292.502014,171.782684 
	C296.016479,170.546829 300.476044,173.347260 303.267426,169.464325 
	C307.058533,164.190781 310.177155,158.582108 310.567871,151.614380 
	C308.372955,150.710556 306.220612,151.214462 304.256195,151.730850 
	C298.911316,153.135834 294.672729,151.035858 291.451752,147.282761 
	C287.844757,143.079880 287.883484,138.404816 290.940582,133.488678 
	C298.415771,121.467819 308.679291,114.893211 323.181305,115.832878 
	C329.648071,116.251892 333.324982,121.995773 330.464966,127.704346 
	C327.440247,133.741592 322.035980,136.558167 315.581421,137.249069 
	C311.920624,137.640930 309.761017,134.704056 310.720764,131.039795 
	C311.973053,126.258575 313.813812,121.820007 319.284912,119.709076 
	C306.175598,119.683739 295.143372,130.904068 294.495483,142.879929 
	C294.393494,144.765320 295.050903,146.268066 296.809296,146.881592 
	C302.259888,148.783371 309.499573,150.831757 313.745758,143.961990 
	C315.049896,141.852112 317.015198,141.322754 319.315247,141.438400 
	C317.511993,153.891663 310.434448,172.751053 297.047485,175.286499 
M319.959473,127.610359 
	C319.959473,128.236237 319.959473,128.862106 319.959473,129.808380 
	C321.530792,128.080734 322.787354,126.522362 322.139923,124.373947 
	C321.844360,123.393105 320.752563,122.839066 319.721985,122.996338 
	C317.303925,123.365364 316.141968,125.281342 315.315765,127.267181 
	C314.398285,129.472534 312.553955,131.851486 315.642700,134.591660 
	C316.173309,131.301285 314.067810,126.927353 319.959473,127.610359 
z"/>
<path fill="#000000" opacity="1.000000" stroke="none" 
	d="
M415.255310,146.484634 
	C412.519836,148.544037 409.595764,148.283554 406.827179,148.711685 
	C405.030487,148.989517 403.487396,149.861526 403.803741,151.937485 
	C404.091461,153.825729 405.599701,154.741547 407.477356,154.562790 
	C412.230469,154.110245 416.454071,152.611145 419.857483,148.930542 
	C422.997284,145.535034 425.740234,141.624176 430.036407,139.478409 
	C434.489807,137.254135 435.613922,137.792725 436.956329,142.830872 
	C439.852203,140.849747 441.726318,136.395706 446.036102,138.198792 
	C448.216309,139.110931 446.328796,141.498566 446.549988,143.234482 
	C447.782227,144.038712 448.233032,142.642838 449.020813,142.305908 
	C453.020966,140.595123 454.330597,141.451401 454.562469,145.945099 
	C454.713074,148.863205 453.185913,152.703201 459.403198,152.834076 
	C456.252747,155.250763 454.023895,154.761215 451.751495,153.663147 
	C448.510803,152.097229 449.098816,149.122452 449.554321,145.612274 
	C446.551849,148.138733 445.376617,150.894867 443.889526,153.434433 
	C443.149017,154.699020 442.416321,156.353043 440.508789,155.561203 
	C438.435638,154.700562 438.907684,152.962753 439.424957,151.296921 
	C440.308319,148.451965 441.156616,145.596130 442.130463,142.378769 
	C436.944733,146.136398 435.682495,151.906128 433.253540,156.935730 
	C431.894043,159.750870 430.262024,162.001617 426.195892,161.787842 
	C426.957214,155.584167 431.763702,150.499542 430.021271,143.335648 
	C426.593567,146.529541 423.585266,149.524536 420.372040,152.280624 
	C415.820862,156.184341 410.515411,158.292114 404.447021,158.340347 
	C400.096466,158.374939 398.009491,155.533920 397.437378,151.929398 
	C396.824371,148.067154 395.566772,143.616226 400.956268,141.413940 
	C403.542206,140.357269 405.746735,138.343048 408.349396,137.358002 
	C411.112854,136.312073 414.467621,135.467880 416.729919,138.105865 
	C419.120483,140.893417 417.458862,143.720825 415.255310,146.484634 
M407.244110,144.841965 
	C410.439667,145.643265 412.802002,144.602264 414.830688,141.370163 
	C410.768982,139.476807 408.733398,141.363953 407.244110,144.841965 
z"/>
<path fill="#000000" opacity="1.000000" stroke="none" 
	d="
M203.489120,149.512177 
	C202.940994,152.605881 199.809204,154.421722 200.701660,157.928604 
	C204.512863,158.087601 205.549332,153.084671 209.918015,153.002930 
	C208.073822,157.605133 204.792511,160.206314 200.874084,160.960464 
	C197.410568,161.627060 196.306747,158.464859 197.156647,155.573746 
	C198.274017,151.772781 200.019653,148.155838 201.508850,144.465302 
	C201.916565,143.454865 203.082184,142.575378 201.507812,140.740570 
	C197.955811,144.567841 195.103424,149.017914 190.808945,152.017059 
	C185.665909,155.608810 180.181534,158.112915 173.820343,158.323105 
	C169.584763,158.463043 167.082001,155.946365 166.545700,152.213852 
	C165.971527,148.217789 164.636856,143.653778 170.249237,141.288513 
	C173.553879,139.895828 176.122650,136.785980 180.048004,136.716431 
	C182.645813,136.670395 185.766296,136.078293 186.511795,139.737503 
	C187.213806,143.183197 185.850723,145.877609 182.727997,147.648239 
	C180.860321,148.707214 178.843399,148.380554 176.864136,148.453674 
	C174.838852,148.528519 172.450104,148.387802 172.583221,151.291779 
	C172.708160,154.017319 174.756470,154.860992 177.212708,154.569656 
	C183.619949,153.809677 189.058731,150.929901 193.025131,145.951706 
	C196.350266,141.778336 200.593414,137.757721 199.151840,131.409760 
	C198.956726,130.550598 199.469925,129.422379 199.911957,128.548660 
	C200.910187,126.575584 202.608795,125.323792 204.780045,126.188240 
	C206.723389,126.961975 207.137955,128.825378 206.452438,130.821014 
	C205.755463,132.849945 205.047073,134.874924 204.506363,136.432892 
	C205.214005,139.231293 208.070831,138.064285 209.115158,140.130554 
	C208.527084,143.757431 204.701553,145.678772 203.489120,149.512177 
M178.284637,141.530731 
	C177.424149,142.557022 175.621552,143.071075 176.466080,145.304932 
	C179.241257,144.958694 182.062881,144.896118 183.381790,141.680038 
	C181.821243,139.940323 180.338104,140.202469 178.284637,141.530731 
z"/>
<path fill="#000000" opacity="1.000000" stroke="none" 
	d="
M359.807037,126.911179 
	C362.863770,121.918106 365.941772,117.385246 369.736511,113.385963 
	C371.842529,111.166451 374.109650,109.747368 377.155548,111.821121 
	C380.278412,113.947250 378.763153,116.329880 377.736145,118.830643 
	C374.531006,126.635498 368.963959,132.830673 363.181671,139.888947 
	C366.240692,140.077164 369.160095,139.232422 370.507050,142.313507 
	C371.771149,145.205093 370.144348,147.481888 369.181824,149.889969 
	C367.734711,153.510300 365.251587,156.489166 362.412445,159.021744 
	C357.810486,163.126785 353.204102,161.635620 351.393921,155.737946 
	C349.187378,148.548920 352.762909,142.394165 355.067474,136.079407 
	C356.195740,132.987885 358.100739,130.179825 359.807037,126.911179 
M372.312744,121.925003 
	C373.178986,119.855896 375.940247,118.362480 374.502899,115.433098 
	C370.304474,116.916931 358.489014,136.188461 358.348816,141.232208 
	C363.511566,135.621353 368.401550,129.562057 372.312744,121.925003 
M364.787506,144.393295 
	C361.824097,145.756699 362.787170,149.465805 360.976288,151.192719 
	C358.447327,151.798294 358.525208,148.821182 356.520477,148.305817 
	C356.213501,150.440536 355.636444,152.240585 355.802856,153.969055 
	C355.946106,155.457016 355.927948,157.538528 357.987946,158.029510 
	C359.760712,158.452042 360.728302,156.931839 361.502808,155.766479 
	C363.763275,152.365219 365.950897,148.874329 364.787506,144.393295 
z"/>
<path fill="#000000" opacity="1.000000" stroke="none" 
	d="
M618.470581,155.751663 
	C611.264038,158.799026 610.949829,158.695953 605.700867,151.686966 
	C601.021729,155.513382 597.821533,161.203522 591.681458,163.143173 
	C590.931458,163.380112 590.048218,163.146423 589.268188,161.928925 
	C592.453735,159.408707 595.596924,156.852432 598.814148,154.392899 
	C603.679932,150.673111 604.982361,145.720413 605.810547,139.726471 
	C607.309509,128.877365 610.829773,118.451691 619.095215,110.492592 
	C621.106140,108.556168 623.785706,106.187714 626.531860,108.203827 
	C629.133667,110.113861 628.967957,113.448776 627.740417,116.472107 
	C623.966003,125.768532 618.719421,134.224350 612.923096,142.358582 
	C611.220886,144.747269 610.049438,147.264954 610.512268,150.246780 
	C611.172974,154.503342 613.356995,155.515823 617.141724,153.413391 
	C618.565674,152.622314 619.974670,151.804169 621.760193,150.787994 
	C622.422729,153.900681 620.064026,154.379242 618.470581,155.751663 
M624.660034,112.341080 
	C614.715210,117.882439 614.892944,128.472733 611.917480,137.494217 
	C617.355896,129.826202 623.452820,122.507881 624.660034,112.341080 
z"/>
<path fill="#000000" opacity="1.000000" stroke="none" 
	d="
M220.973618,142.965073 
	C222.207611,142.488708 223.416550,141.928833 224.679855,141.550262 
	C230.589630,139.779251 233.376617,142.060059 232.685944,148.052689 
	C231.947220,154.462296 222.990631,160.087708 216.906540,157.963348 
	C212.127396,156.294632 210.305984,150.148056 213.400833,144.355515 
	C215.768600,139.923859 219.443771,136.521317 224.129456,134.399353 
	C226.683517,133.242706 228.853745,133.621902 229.660934,136.512634 
	C230.421921,139.237778 228.307114,139.926636 226.210632,140.174683 
	C224.325821,140.397675 222.623596,140.831009 220.935516,142.902283 
	C219.079224,144.340103 217.892303,145.470062 217.135941,146.992813 
	C216.046219,149.186691 215.522415,151.503525 217.226639,153.512650 
	C218.955551,155.550888 221.199844,155.223587 224.341309,154.015274 
	C217.755936,151.406250 219.803024,147.090881 220.973618,142.965073 
z"/>
<path fill="#000000" opacity="1.000000" stroke="none" 
	d="
M381.873413,157.834320 
	C382.466248,151.726959 385.871735,146.915237 387.108856,141.183105 
	C381.879456,145.533325 378.561737,151.977539 370.292175,154.322784 
	C373.429932,149.152420 377.838318,146.795303 380.484924,142.835022 
	C382.501770,139.817108 384.367645,137.114349 383.987152,133.334427 
	C383.889893,132.368423 384.094757,131.342224 384.316528,130.379562 
	C384.930176,127.716209 386.338257,125.266167 389.336182,126.073830 
	C392.726044,126.987076 391.616699,129.857788 390.922638,132.307449 
	C390.437256,134.020706 389.069580,135.520966 389.521332,137.310364 
	C390.458038,139.305038 392.861328,138.104919 394.203552,140.286224 
	C391.141266,145.682648 386.936432,151.014847 385.156616,157.939606 
	C389.578796,158.149078 390.541687,153.535828 393.907562,152.971985 
	C393.562622,155.989929 389.581757,160.120529 386.435059,160.967987 
	C383.945618,161.638412 382.692657,160.351868 381.873413,157.834320 
z"/>
<path fill="#000000" opacity="1.000000" stroke="none" 
	d="
M330.937653,141.056183 
	C333.909363,138.797028 336.631561,136.816147 340.143646,136.721420 
	C342.729828,136.651672 345.808563,136.045624 346.550995,139.754990 
	C347.203033,143.012741 345.911438,145.570648 343.147400,147.405060 
	C341.209869,148.690903 338.999084,148.407822 336.862518,148.557800 
	C334.910858,148.694794 332.377411,148.322067 332.589233,151.315430 
	C332.804352,154.355423 335.201599,155.031082 337.722260,154.484360 
	C341.081451,153.755768 344.362091,152.664719 349.137054,151.317184 
	C345.409363,156.596954 340.675781,157.281830 336.361969,158.225800 
	C332.854187,158.993393 329.293121,158.405869 327.365204,154.621246 
	C325.424622,150.811844 325.829895,146.904251 327.220215,143.060913 
	C327.747131,141.604172 329.469116,141.852844 330.937653,141.056183 
M339.716858,144.716125 
	C341.261597,144.187393 342.924683,143.802475 343.411621,141.341003 
	C339.511810,139.332291 337.709991,141.480270 336.040924,144.506210 
	C337.227142,145.509720 338.166443,145.225739 339.716858,144.716125 
z"/>
<path fill="#000000" opacity="1.000000" stroke="none" 
	d="
M235.776855,150.668823 
	C239.154388,147.700027 242.114487,144.745361 245.415009,142.239044 
	C248.826706,139.648331 252.437119,136.788315 257.028656,140.248688 
	C257.496979,140.601624 258.339600,140.854309 258.856201,140.685959 
	C264.629456,138.804703 265.111755,143.661346 265.319336,146.725372 
	C265.524445,149.752945 266.417328,151.654205 268.956116,153.101852 
	C263.908936,156.145508 263.740387,156.001953 258.742004,144.866684 
	C253.952652,149.027039 253.673782,155.836975 249.152512,160.417145 
	C245.405167,153.734360 252.571945,148.662140 251.945969,142.105148 
	C244.836884,144.315460 241.466339,152.479446 233.927475,154.032120 
	C233.341904,151.970596 234.787430,151.659729 235.776855,150.668823 
z"/>
<path fill="#000000" opacity="1.000000" stroke="none" 
	d="
M583.887573,154.362122 
	C588.770752,155.210342 592.611145,152.030609 597.263123,151.807297 
	C594.570862,156.411743 584.013916,159.881378 579.633850,157.894165 
	C576.061157,156.273254 574.162292,149.805496 575.741028,144.635025 
	C577.060059,140.315308 589.618713,135.044144 593.578430,137.148209 
	C596.790649,138.855072 596.310852,144.094223 592.703674,146.805969 
	C590.566040,148.412964 588.089661,148.416107 585.582214,148.425110 
	C584.114807,148.430374 582.505188,148.323608 581.783447,150.100281 
	C580.983765,152.068542 582.110046,153.221436 583.887573,154.362122 
M586.802795,141.970367 
	C586.045898,142.888977 584.381165,143.435608 585.620728,145.392288 
	C588.232422,144.932556 590.989136,144.807190 592.579041,141.833633 
	C590.749084,139.633926 589.034607,140.273132 586.802795,141.970367 
z"/>
<path fill="#000000" opacity="1.000000" stroke="none" 
	d="
M480.039551,126.577499 
	C481.583130,125.658104 482.933655,125.401360 483.828247,126.710709 
	C484.530945,127.739189 484.071136,128.922485 483.399475,129.929764 
	C482.150421,131.802902 480.513580,131.679535 478.851074,131.101212 
	C477.933411,129.208160 478.870178,128.031799 480.039551,126.577499 
z"/>
</svg>